STARTFONT 2.3
FONT -FontForge-Satisfy-Book-R-Normal--20-200-72-72-P-86-ISO10646-1
SIZE 20 72 72  2
FONTBOUNDINGBOX 23 29 -4 -10
COMMENT "Generated by fontforge, http://fontforge.sourceforge.net"
COMMENT "Copyright (c) 2011 by Font Diner, Inc. All rights reserved."
STARTPROPERTIES 40
FOUNDRY "FontForge"
FAMILY_NAME "Satisfy"
WEIGHT_NAME "Book"
SLANT "R"
SETWIDTH_NAME "Normal"
ADD_STYLE_NAME ""
PIXEL_SIZE 20
POINT_SIZE 200
RESOLUTION_X 72
RESOLUTION_Y 72
SPACING "P"
AVERAGE_WIDTH 86
CHARSET_REGISTRY "ISO10646"
CHARSET_ENCODING "1"
FONTNAME_REGISTRY ""
CHARSET_COLLECTIONS "ISO10646-1"
BITS_PER_PIXEL 2
FONT_NAME "Satisfy-Regular"
FACE_NAME "Satisfy Regular"
COPYRIGHT "Copyright (c) 2011 by Font Diner, Inc. All rights reserved."
FONT_VERSION "1.001"
FONT_ASCENT 16
FONT_DESCENT 4
UNDERLINE_POSITION -2
UNDERLINE_THICKNESS 1
X_HEIGHT 7
CAP_HEIGHT 14
RAW_ASCENT 799
RAW_DESCENT 200
NORM_SPACE 6
RELATIVE_WEIGHT 40
RELATIVE_SETWIDTH 50
SUPERSCRIPT_X 0
SUPERSCRIPT_Y 9
SUPERSCRIPT_SIZE 13
SUBSCRIPT_X 0
SUBSCRIPT_Y 2
SUBSCRIPT_SIZE 13
AVG_LOWERCASE_WIDTH 81
AVG_UPPERCASE_WIDTH 112
ENDPROPERTIES
CHARS 227
STARTCHAR space
ENCODING 32
SWIDTH 280 0
DWIDTH 6 0
BBX 1 1 0 0
BITMAP
00
ENDCHAR
STARTCHAR exclam
ENCODING 33
SWIDTH 249 0
DWIDTH 5 0
BBX 7 16 -1 -1
BITMAP
0064
00F0
00E0
01E0
02D0
02C0
0380
0740
0740
0B00
0E00
0D00
0400
1400
7C00
1000
ENDCHAR
STARTCHAR quotedbl
ENCODING 34
SWIDTH 249 0
DWIDTH 5 0
BBX 6 7 1 8
BITMAP
1490
35D0
72C0
B380
E340
D700
4000
ENDCHAR
STARTCHAR numbersign
ENCODING 35
SWIDTH 417 0
DWIDTH 8 0
BBX 10 11 -1 2
BITMAP
001040
006280
009340
0AFFE0
1ADA50
024900
1BAE80
7FBE80
0A2800
0D3400
186000
ENDCHAR
STARTCHAR dollar
ENCODING 36
SWIDTH 292 0
DWIDTH 6 0
BBX 8 15 -1 0
BITMAP
0010
0030
01F8
070D
0A0A
0E0D
0B00
0740
0280
01D0
60E0
A0A0
75C0
1E00
1C00
ENDCHAR
STARTCHAR percent
ENCODING 37
SWIDTH 574 0
DWIDTH 11 0
BBX 12 16 0 -1
BITMAP
014005
0E902C
287074
3470D0
70A280
30D700
3B9D00
052800
00B190
01D774
038D28
0B1C28
1D1834
381870
B00FD0
400100
ENDCHAR
STARTCHAR ampersand
ENCODING 38
SWIDTH 460 0
DWIDTH 9 0
BBX 10 16 -1 -1
BITMAP
000680
0028C0
0071C0
00B340
00BE00
00F800
01F000
03F000
0FF000
2DB000
74B400
B07850
E07980
F43E00
7FFE00
155E00
ENDCHAR
STARTCHAR quotesingle
ENCODING 39
SWIDTH 113 0
DWIDTH 2 0
BBX 3 7 1 8
BITMAP
14
34
70
B0
E0
D0
40
ENDCHAR
STARTCHAR parenleft
ENCODING 40
SWIDTH 234 0
DWIDTH 5 0
BBX 7 19 0 -2
BITMAP
0004
0074
00D0
0280
0340
0A00
0D00
1C00
2800
3800
3400
7400
7000
B000
B000
B000
7000
7000
2000
ENDCHAR
STARTCHAR parenright
ENCODING 41
SWIDTH 204 0
DWIDTH 4 0
BBX 6 19 -2 -2
BITMAP
0040
00C0
0090
00A0
00A0
00B0
00A0
00A0
00E0
01D0
01C0
02C0
0380
0740
0A00
0D00
2800
7000
D000
ENDCHAR
STARTCHAR asterisk
ENCODING 42
SWIDTH 327 0
DWIDTH 7 0
BBX 7 7 1 8
BITMAP
0140
0380
B754
6FF8
1F40
7AD0
21D0
ENDCHAR
STARTCHAR plus
ENCODING 43
SWIDTH 350 0
DWIDTH 7 0
BBX 7 7 0 4
BITMAP
0180
0280
0340
BFF8
9B54
0A00
0E00
ENDCHAR
STARTCHAR comma
ENCODING 44
SWIDTH 200 0
DWIDTH 4 0
BBX 3 5 -1 -3
BITMAP
14
B8
78
20
40
ENDCHAR
STARTCHAR hyphen
ENCODING 45
SWIDTH 353 0
DWIDTH 7 0
BBX 8 2 -1 5
BITMAP
2FFE
6554
ENDCHAR
STARTCHAR period
ENCODING 46
SWIDTH 213 0
DWIDTH 4 0
BBX 3 3 -1 -1
BITMAP
14
7C
10
ENDCHAR
STARTCHAR slash
ENCODING 47
SWIDTH 262 0
DWIDTH 5 0
BBX 10 16 -2 -1
BITMAP
000050
0001C0
000340
000B00
000D00
002800
007000
00A000
01C000
038000
070000
0D0000
2C0000
380000
B00000
400000
ENDCHAR
STARTCHAR zero
ENCODING 48
SWIDTH 489 0
DWIDTH 10 0
BBX 9 16 0 -1
BITMAP
002900
00FB00
02C280
074280
0E02C0
1D02C0
2C02C0
380380
780380
740740
740B00
740E00
342C00
387400
1FD000
050000
ENDCHAR
STARTCHAR one
ENCODING 49
SWIDTH 272 0
DWIDTH 5 0
BBX 5 16 0 -1
BITMAP
0140
07C0
0BC0
0380
0740
0700
0B00
0E00
0D00
1C00
2C00
3800
7400
7400
B400
1000
ENDCHAR
STARTCHAR two
ENCODING 50
SWIDTH 448 0
DWIDTH 9 0
BBX 10 16 -1 -1
BITMAP
001A40
00A2D0
02C1E0
0781E0
0741D0
0002C0
000740
000E00
002C00
00B000
02C000
0F0000
2C0000
7ABA00
7FBE00
100100
ENDCHAR
STARTCHAR three
ENCODING 51
SWIDTH 462 0
DWIDTH 9 0
BBX 9 16 0 -1
BITMAP
00A900
079B40
0E0380
1D0380
1E0780
000F00
002D00
01F400
03B800
000E00
000E00
000D00
B02C00
F47800
7FE000
154000
ENDCHAR
STARTCHAR four
ENCODING 52
SWIDTH 452 0
DWIDTH 9 0
BBX 9 16 0 -1
BITMAP
000540
001F40
007B00
00E700
028A00
0B0D00
2D1D00
B42C00
FFFF00
657A00
007400
007400
00B400
00F000
00F000
005000
ENDCHAR
STARTCHAR five
ENCODING 53
SWIDTH 444 0
DWIDTH 9 0
BBX 10 16 0 -1
BITMAP
005640
03FFD0
0746C0
0A0000
0D0000
1C0000
29F800
2FAD00
2D0E00
000D00
000D00
201C00
B03400
FAE000
7F8000
150000
ENDCHAR
STARTCHAR six
ENCODING 54
SWIDTH 477 0
DWIDTH 10 0
BBX 9 16 0 -1
BITMAP
001A00
00B740
01D380
038740
0B0000
0E1400
2DEE00
2F8700
3F0740
790740
740B00
740E00
381D00
2C3800
1EE000
054000
ENDCHAR
STARTCHAR seven
ENCODING 55
SWIDTH 406 0
DWIDTH 8 0
BBX 8 15 1 0
BITMAP
15A9
7FFF
640A
001C
0034
00A0
01D0
0380
0B00
0E00
2D00
3800
B400
B000
F000
ENDCHAR
STARTCHAR eight
ENCODING 56
SWIDTH 444 0
DWIDTH 9 0
BBX 10 16 -1 -1
BITMAP
001A40
007490
00D060
01C0A0
02D2C0
01EB40
00FD00
00F800
07AD00
0E1E00
2C0F00
380B00
740E00
341D00
2EB400
054000
ENDCHAR
STARTCHAR nine
ENCODING 57
SWIDTH 462 0
DWIDTH 9 0
BBX 9 16 0 -1
BITMAP
006900
01D700
074340
0E0280
1D0280
2C0780
280B80
281F40
2C2B00
1EAB00
064D00
002C00
607400
B5E000
7F8000
150000
ENDCHAR
STARTCHAR colon
ENCODING 58
SWIDTH 226 0
DWIDTH 5 0
BBX 4 7 -1 -1
BITMAP
05
1F
04
00
14
7C
10
ENDCHAR
STARTCHAR semicolon
ENCODING 59
SWIDTH 212 0
DWIDTH 4 0
BBX 4 9 -1 -3
BITMAP
09
2E
04
00
14
B8
78
20
40
ENDCHAR
STARTCHAR less
ENCODING 60
SWIDTH 271 0
DWIDTH 5 0
BBX 6 9 0 2
BITMAP
0050
02D0
0F40
7C00
F000
B000
3800
2D00
0900
ENDCHAR
STARTCHAR equal
ENCODING 61
SWIDTH 374 0
DWIDTH 7 0
BBX 8 5 0 4
BITMAP
2AA9
6AA8
1550
FFF4
4000
ENDCHAR
STARTCHAR greater
ENCODING 62
SWIDTH 250 0
DWIDTH 5 0
BBX 6 9 -1 2
BITMAP
0500
0B00
0780
02D0
00E0
02D0
0F40
7800
9000
ENDCHAR
STARTCHAR question
ENCODING 63
SWIDTH 413 0
DWIDTH 8 0
BBX 11 16 -1 -1
BITMAP
006A40
02E6E0
0B40B4
0B00B4
0100B0
0001D0
000780
006E00
07E400
0B4000
0B0000
0E0000
080000
140000
7D0000
140000
ENDCHAR
STARTCHAR at
ENCODING 64
SWIDTH 648 0
DWIDTH 13 0
BBX 14 14 -1 -1
BITMAP
000AA400
00B40A00
03804280
0A0BE8D0
2C28B890
3470B4A0
70D070A0
71C0A0D0
7281D1C0
71DB8280
38AA8B00
1D02ED00
06A0A000
00100000
ENDCHAR
STARTCHAR A
ENCODING 65
SWIDTH 552 0
DWIDTH 11 0
BBX 12 20 -2 -5
BITMAP
000029
0001EB
000387
000A0A
001D0A
00380D
00741D
00B01C
00E02C
01D038
02EA78
1BFFFD
5B8078
0B40B4
1F00B0
2E00F0
3D00F0
7C00F0
5000B8
000050
ENDCHAR
STARTCHAR B
ENCODING 66
SWIDTH 607 0
DWIDTH 12 0
BBX 12 19 0 -4
BITMAP
007A90
06F5B8
0FE02D
09D01E
02C02D
03803C
034078
0741E0
0B5780
0FFF80
1E91E0
2D00B0
2C00B4
3800B4
7800F0
B402E0
F00B80
F5BE00
6A9000
ENDCHAR
STARTCHAR C
ENCODING 67
SWIDTH 548 0
DWIDTH 11 0
BBX 11 19 0 -4
BITMAP
000690
007D74
01E02C
03C03C
0B403C
0F00B8
2D00F4
3C0010
7C0000
B80000
B40000
F40000
F40000
F00000
F40080
B40280
3C0A00
1FF800
069000
ENDCHAR
STARTCHAR D
ENCODING 68
SWIDTH 632 0
DWIDTH 13 0
BBX 12 19 0 -4
BITMAP
006900
07FBD0
0A00B4
00902C
03D01E
03C01E
03800F
07800F
07401F
0B001E
0F002D
0E003C
1D0078
2C00F0
3802D0
780780
B42E00
BAF400
1A4000
ENDCHAR
STARTCHAR E
ENCODING 69
SWIDTH 523 0
DWIDTH 10 0
BBX 12 19 -1 -4
BITMAP
0006A4
002E5D
00F40E
02D00E
07C01D
07807C
078010
07C000
01E000
00BF00
079500
1D0000
3C0000
780010
B80020
780090
3E0280
1FFE00
01A400
ENDCHAR
STARTCHAR F
ENCODING 70
SWIDTH 585 0
DWIDTH 12 0
BBX 11 19 1 -4
BITMAP
016A90
2FA6F4
B40074
F40074
FE00A0
1801D0
000280
000740
1ABFA0
3A6E50
002C00
007800
00B400
00F000
01E000
02D000
03D000
03D000
024000
ENDCHAR
STARTCHAR G
ENCODING 71
SWIDTH 612 0
DWIDTH 12 0
BBX 12 19 0 -4
BITMAP
0006A0
002E78
00B42C
01E02C
03C02C
0B4078
0F00F4
2E0010
3D0000
7C0000
7C2BFD
B815B8
B800B0
B400E0
B401C0
780380
380A00
1E6C00
06A000
ENDCHAR
STARTCHAR H
ENCODING 72
SWIDTH 649 0
DWIDTH 13 0
BBX 13 19 0 -4
BITMAP
00500040
01E003C0
01D00780
02C00B40
03C00F00
07801E00
07401D00
0B002C00
0E057800
1FFFFF00
2E747900
2C0DB000
2C06E000
3803D000
7802D000
B402C000
B403C000
F0038000
90014000
ENDCHAR
STARTCHAR I
ENCODING 73
SWIDTH 537 0
DWIDTH 11 0
BBX 13 19 -2 -4
BITMAP
00001900
0000FA00
0003CA00
000B4E00
000F0E00
000F1D00
000E1D00
000E2C00
000A3C00
00067800
0000B400
01BFFA40
1B95E000
3D01D000
78028000
78034000
3D0A0000
1FAC0000
01A00000
ENDCHAR
STARTCHAR J
ENCODING 74
SWIDTH 500 0
DWIDTH 10 0
BBX 14 19 -2 -4
BITMAP
0001AA50
000BFFE0
00001D00
00002C00
00003C00
00007800
00007400
0000B400
0000F000
0141E000
07D1E000
1F82D000
2D03C000
78078000
700B4000
B00E0000
B02C0000
34B40000
0A900000
ENDCHAR
STARTCHAR K
ENCODING 75
SWIDTH 497 0
DWIDTH 10 0
BBX 12 21 -1 -6
BITMAP
002405
00B41E
00E01E
01D02D
02C07C
03C0B4
0781E0
074780
0B1E00
0FB400
1FEA00
2D0B40
2C0780
3C0740
380B40
780E00
B41D00
B42D00
901D00
000BA4
000150
ENDCHAR
STARTCHAR L
ENCODING 76
SWIDTH 492 0
DWIDTH 10 0
BBX 13 19 -2 -4
BITMAP
00001A00
00007F80
0000F380
0001D740
0002CA00
0003ED00
0007F400
07FF8000
005B0000
000F0000
000E0000
001D0000
002C0000
00380000
00B00000
6FE00000
F7F40400
BE2FBC00
1006F400
ENDCHAR
STARTCHAR M
ENCODING 77
SWIDTH 733 0
DWIDTH 15 0
BBX 17 19 -2 -4
BITMAP
0000400100
0003D01F40
0007D02F40
000ED07B00
001DD0BB00
002DD0DA00
0039D2CD00
0039C35D00
0075C72C00
00B2CE2800
18F2DC3800
34E2E87400
71D2F47400
A2C2F0B000
D3C1F0F000
D38090F000
EB4001F000
BF0000F400
1900006800
ENDCHAR
STARTCHAR N
ENCODING 78
SWIDTH 541 0
DWIDTH 11 0
BBX 14 19 -1 -4
BITMAP
00500280
01E00BE0
02F01D60
02F02C90
03B039C0
07707B40
0B71B900
0A70B000
0D30B000
1D30A000
2C34E000
2C34D000
3835D000
783AC000
742A8000
B42F8000
B41F4000
B80F0000
54050000
ENDCHAR
STARTCHAR O
ENCODING 79
SWIDTH 567 0
DWIDTH 11 0
BBX 11 19 0 -4
BITMAP
002E40
00BED0
02D4B0
0780B0
0B0074
1E0074
2D0074
3C0074
7800B4
7400B0
B400F0
B400E0
B001D0
B002C0
B00780
B40B00
741D00
2DB400
0A9000
ENDCHAR
STARTCHAR P
ENCODING 80
SWIDTH 552 0
DWIDTH 11 0
BBX 13 19 -1 -4
BITMAP
001AA400
01F96D00
0BB00F00
09B00B40
00A00B40
00D00B40
01C00F00
02C02D00
03807800
0382E000
07AF4000
0BA40000
0F000000
0E000000
1E000000
2D000000
3C000000
B8000000
50000000
ENDCHAR
STARTCHAR Q
ENCODING 81
SWIDTH 583 0
DWIDTH 12 0
BBX 11 19 0 -4
BITMAP
001A80
00B9E0
02D074
078038
0F002C
1E002C
2C003C
3C0038
780078
780074
7400B0
7801E0
3D02D0
0A0380
014B40
1FBE00
387E00
3EE790
1A4064
ENDCHAR
STARTCHAR R
ENCODING 82
SWIDTH 560 0
DWIDTH 11 0
BBX 13 20 -1 -5
BITMAP
001AA400
01F96E00
0BB40B40
0A700740
00A00740
00E00B40
00D00F00
01C01E00
02C07800
07E1E000
0FBF8000
0BAE0000
0B470000
0F074000
0E074000
1E038000
2D038000
7C03C000
1002E800
0001A000
ENDCHAR
STARTCHAR S
ENCODING 83
SWIDTH 474 0
DWIDTH 10 0
BBX 11 19 -1 -4
BITMAP
001A90
00B974
02D038
078038
0B4038
0740B4
07C000
02E000
00F800
007D00
001E00
000F00
000B00
140700
B40700
F40E00
B81C00
7EB400
1A9000
ENDCHAR
STARTCHAR T
ENCODING 84
SWIDTH 423 0
DWIDTH 8 0
BBX 11 19 0 -4
BITMAP
055554
7FFFF8
657800
007400
00B000
00F000
00E000
01D000
02C000
038000
038000
074000
0B4000
0B0000
0F0000
1E0000
1D0000
2D0000
140000
ENDCHAR
STARTCHAR U
ENCODING 85
SWIDTH 574 0
DWIDTH 11 0
BBX 12 19 0 -4
BITMAP
005005
02D01F
03C01E
07802D
0B403C
0F0078
1E00B4
2D00B0
2C00E0
3C01E0
7801D0
7402C0
B403C0
B00780
B00B80
B01F80
B43B80
7EE380
1A4140
ENDCHAR
STARTCHAR V
ENCODING 86
SWIDTH 503 0
DWIDTH 10 0
BBX 11 19 1 -4
BITMAP
050050
2D00F4
3C01E0
7802D0
740380
B00740
B00B00
E00E00
E01D00
E02C00
E03800
E07400
E0B000
E0E000
A1C000
B28000
774000
3E0000
180000
ENDCHAR
STARTCHAR W
ENCODING 87
SWIDTH 817 0
DWIDTH 16 0
BBX 16 19 0 -4
BITMAP
0050000A
02D0201F
0780B00F
0B40F00F
0F01E00E
1E02E00E
2D02D01E
2C02C01D
3802802C
74038028
74078038
700B4074
700F40B0
702F40D0
703741C0
70B28380
39D2CB00
2F81FD00
0A00A400
ENDCHAR
STARTCHAR X
ENCODING 88
SWIDTH 579 0
DWIDTH 12 0
BBX 15 19 -1 -4
BITMAP
02900060
0AB001F4
0C3407C0
1C280F00
0E6C2D00
0BEC7400
015DE000
001FC000
000F4000
000E0000
002E0000
007E0000
00EA0000
02DB0000
07870000
0F074000
2D038180
B801EA00
10006400
ENDCHAR
STARTCHAR Y
ENCODING 89
SWIDTH 532 0
DWIDTH 11 0
BBX 12 19 0 -4
BITMAP
018019
07803C
0B403C
0F0078
0E00B4
1D00B0
2C00E0
3C01D0
3802D0
7407C0
740B80
782A40
3FE340
054700
000E00
101D00
787800
BFE000
1A4000
ENDCHAR
STARTCHAR Z
ENCODING 90
SWIDTH 455 0
DWIDTH 9 0
BBX 12 19 -2 -4
BITMAP
005695
01FFFF
01940F
00001E
00003C
0000B4
0001E0
0007C0
000F40
002D00
00B400
01E000
038000
0B0000
1D0000
380000
7ABF90
7FFFC0
140100
ENDCHAR
STARTCHAR bracketleft
ENCODING 91
SWIDTH 202 0
DWIDTH 4 0
BBX 7 20 -1 -3
BITMAP
0068
00B8
00D0
01C0
0280
0340
0700
0B00
0A00
0D00
1C00
2C00
2800
3400
7000
7000
A000
A000
FC00
1000
ENDCHAR
STARTCHAR backslash
ENCODING 92
SWIDTH 273 0
DWIDTH 5 0
BBX 4 16 1 -1
BITMAP
90
D0
E0
E0
A0
B0
70
70
34
34
28
2C
1C
1D
1E
04
ENDCHAR
STARTCHAR bracketright
ENCODING 93
SWIDTH 216 0
DWIDTH 4 0
BBX 7 20 -2 -3
BITMAP
0064
00BC
0028
0028
0034
0070
0070
00A0
00D0
00D0
01C0
0280
0340
0340
0700
0A00
0D00
2C00
F800
5000
ENDCHAR
STARTCHAR asciicircum
ENCODING 94
SWIDTH 287 0
DWIDTH 6 0
BBX 8 8 -1 7
BITMAP
0014
00F8
02E8
0368
0A1C
1D1C
381D
6019
ENDCHAR
STARTCHAR underscore
ENCODING 95
SWIDTH 439 0
DWIDTH 9 0
BBX 10 3 -2 -1
BITMAP
555540
FFFFF0
400000
ENDCHAR
STARTCHAR grave
ENCODING 96
SWIDTH 567 0
DWIDTH 11 0
BBX 4 3 5 11
BITMAP
50
B8
09
ENDCHAR
STARTCHAR a
ENCODING 97
SWIDTH 435 0
DWIDTH 9 0
BBX 12 9 -1 -1
BITMAP
01F800
076800
0E0D00
2C1C05
382C18
783820
79E890
3F5F40
040400
ENDCHAR
STARTCHAR b
ENCODING 98
SWIDTH 415 0
DWIDTH 8 0
BBX 10 15 0 -1
BITMAP
02C000
078000
0B8000
0F4000
1F0000
2E0000
3D0000
7CB410
74BF90
B03400
A07000
A0A000
A2C000
7F0000
040000
ENDCHAR
STARTCHAR c
ENCODING 99
SWIDTH 363 0
DWIDTH 7 0
BBX 9 10 0 -1
BITMAP
004000
0BD000
3DA000
71D000
E00080
D00240
D00900
E02400
7ED000
150000
ENDCHAR
STARTCHAR d
ENCODING 100
SWIDTH 483 0
DWIDTH 10 0
BBX 13 15 -1 -1
BITMAP
00007400
0000B400
0000F400
0001F000
0002F000
0002E000
01E3D000
0B1B8000
1D0F4000
280A0140
340D0600
742C1800
38AC6000
2F4F8000
04050000
ENDCHAR
STARTCHAR e
ENCODING 101
SWIDTH 372 0
DWIDTH 7 0
BBX 9 9 0 -1
BITMAP
07E000
1CA000
75D000
B74040
FD0240
E00A00
F02800
7ED000
050000
ENDCHAR
STARTCHAR f
ENCODING 102
SWIDTH 325 0
DWIDTH 7 0
BBX 11 24 -2 -10
BITMAP
006800
007C00
007800
007400
007400
00B000
00E000
01D000
02D6A4
07E400
0F4000
0F0000
0B8000
0DA000
1C3400
2C2800
282C00
342800
743400
70B000
A1D000
FB8000
BE0000
140000
ENDCHAR
STARTCHAR g
ENCODING 103
SWIDTH 459 0
DWIDTH 9 0
BBX 12 18 -1 -10
BITMAP
02F140
0B1B40
1D1F00
280E01
380E09
381D24
387DD0
1FAE00
057800
01F400
0B7400
1D7000
34A000
74E000
71D000
36C000
2F8000
0A0000
ENDCHAR
STARTCHAR h
ENCODING 104
SWIDTH 465 0
DWIDTH 9 0
BBX 11 15 0 -1
BITMAP
064000
078000
0B4000
0B0000
0E0000
1D0000
1C6800
2ABC00
3D2C00
783804
703424
B07090
E0B640
D0BD00
401000
ENDCHAR
STARTCHAR i
ENCODING 105
SWIDTH 274 0
DWIDTH 5 0
BBX 7 13 0 0
BITMAP
0240
0740
0100
0000
0000
1900
2C00
3800
7408
7024
A0A0
A280
7E00
ENDCHAR
STARTCHAR j
ENCODING 106
SWIDTH 267 0
DWIDTH 5 0
BBX 11 22 -4 -9
BITMAP
000280
000740
000100
000000
000000
001800
002C00
003C00
003808
007424
00B090
00E640
00FD00
01E000
07C000
1FC000
378000
A34000
D70000
CA0000
DD0000
680000
ENDCHAR
STARTCHAR k
ENCODING 107
SWIDTH 440 0
DWIDTH 9 0
BBX 11 15 -1 -1
BITMAP
01D000
02D000
02C000
038000
038000
074000
0B2E00
0AAE00
0F4900
1D6804
29F418
242820
343490
703F40
101800
ENDCHAR
STARTCHAR l
ENCODING 108
SWIDTH 218 0
DWIDTH 4 0
BBX 6 15 -1 -1
BITMAP
0190
02D0
02D0
03C0
0380
0740
0B00
0B00
0E00
1D00
2C00
2C00
3800
7400
1000
ENDCHAR
STARTCHAR m
ENCODING 109
SWIDTH 717 0
DWIDTH 14 0
BBX 16 9 0 -1
BITMAP
04281800
2DFDBE00
3E5E8E00
3D1E1E02
782C1D09
B4382C18
B0743C60
E0B02F80
40000500
ENDCHAR
STARTCHAR n
ENCODING 110
SWIDTH 461 0
DWIDTH 9 0
BBX 12 9 -1 -1
BITMAP
051900
0BAF00
0F8B00
1E0E01
1C1D09
2C1D24
382CA0
742F80
100500
ENDCHAR
STARTCHAR o
ENCODING 111
SWIDTH 393 0
DWIDTH 8 0
BBX 10 9 0 -1
BITMAP
0B8000
2DA010
747090
F87640
DFF800
D1E000
D1C000
BB4000
140000
ENDCHAR
STARTCHAR p
ENCODING 112
SWIDTH 451 0
DWIDTH 9 0
BBX 13 17 -2 -9
BITMAP
01864000
02EBC000
03E1C000
0381C040
07038200
0B074900
0BEE6400
0FFFD000
1D910000
2C000000
28000000
38000000
74000000
B0000000
F0000000
E0000000
50000000
ENDCHAR
STARTCHAR q
ENCODING 113
SWIDTH 462 0
DWIDTH 9 0
BBX 10 17 0 -9
BITMAP
068500
1D6E00
343D00
B02C00
E03800
E07420
E0B490
BAB180
19A600
00F800
01E000
01C000
038000
078000
0B8000
078000
028000
ENDCHAR
STARTCHAR r
ENCODING 114
SWIDTH 406 0
DWIDTH 8 0
BBX 12 10 -2 -1
BITMAP
01E000
02E000
02F900
039B00
070B01
0D1D08
183824
3074A0
507B80
001900
ENDCHAR
STARTCHAR s
ENCODING 115
SWIDTH 351 0
DWIDTH 7 0
BBX 6 10 0 -1
BITMAP
0640
0F40
1F00
2B40
6380
82C0
10D0
74D0
7E80
1900
ENDCHAR
STARTCHAR t
ENCODING 116
SWIDTH 301 0
DWIDTH 6 0
BBX 11 15 -2 -1
BITMAP
002800
007800
007900
7BFFF4
15F410
01F000
01E000
02D000
038000
034060
070080
060240
070900
03F400
005000
ENDCHAR
STARTCHAR u
ENCODING 117
SWIDTH 468 0
DWIDTH 9 0
BBX 11 9 0 -1
BITMAP
140800
382C00
743C00
B07808
E07424
E07060
E1F180
7F7E00
040400
ENDCHAR
STARTCHAR v
ENCODING 118
SWIDTH 427 0
DWIDTH 9 0
BBX 11 9 0 -1
BITMAP
240900
B42D00
B03C14
B079A0
A0A940
B1C000
774000
3D0000
140000
ENDCHAR
STARTCHAR w
ENCODING 119
SWIDTH 646 0
DWIDTH 13 0
BBX 15 9 0 -1
BITMAP
182C1800
383C3C00
74743C04
B0703960
B0607A40
A0A0A000
A1B1D000
7A2F4000
14040000
ENDCHAR
STARTCHAR x
ENCODING 120
SWIDTH 399 0
DWIDTH 8 0
BBX 10 9 -1 -1
BITMAP
1D0B40
0E2E00
077800
03E000
078000
0FC050
29D280
A0BE00
401000
ENDCHAR
STARTCHAR y
ENCODING 121
SWIDTH 406 0
DWIDTH 8 0
BBX 9 17 -1 -9
BITMAP
090600
1E0B40
1D0B00
2C0E00
382D00
747C00
74F800
3FB800
053400
007000
00B000
00E000
00D000
01D000
02C000
03C000
014000
ENDCHAR
STARTCHAR z
ENCODING 122
SWIDTH 448 0
DWIDTH 9 0
BBX 11 17 -1 -9
BITMAP
01BF80
03A740
000700
000D00
002804
00B918
01EBA0
018740
007E00
029E00
0A1D00
2C2C00
747400
B0B000
B1D000
7B8000
290000
ENDCHAR
STARTCHAR braceleft
ENCODING 123
SWIDTH 243 0
DWIDTH 5 0
BBX 8 20 -1 -3
BITMAP
0005
007D
00F4
01C0
01C0
01C0
01C0
0280
0740
1D00
0A00
0A00
0A00
1C00
2800
7400
7400
7D00
1D00
0400
ENDCHAR
STARTCHAR bar
ENCODING 124
SWIDTH 253 0
DWIDTH 5 0
BBX 5 16 0 -1
BITMAP
0180
0280
0340
0740
0B00
0A00
0D00
1C00
1C00
2800
3800
7400
7000
B000
F000
4000
ENDCHAR
STARTCHAR braceright
ENCODING 125
SWIDTH 243 0
DWIDTH 5 0
BBX 7 20 -2 -3
BITMAP
0050
00B4
00BC
002C
0028
0034
00A0
00D0
00C0
00A0
00B0
0280
0740
0700
0700
0700
0B00
6E00
B800
4000
ENDCHAR
STARTCHAR asciitilde
ENCODING 126
SWIDTH 329 0
DWIDTH 7 0
BBX 8 2 -1 6
BITMAP
7FAB
65A9
ENDCHAR
STARTCHAR uni00A0
ENCODING 160
SWIDTH 280 0
DWIDTH 6 0
BBX 1 1 0 0
BITMAP
00
ENDCHAR
STARTCHAR exclamdown
ENCODING 161
SWIDTH 249 0
DWIDTH 5 0
BBX 7 16 -1 -1
BITMAP
0060
01F4
0040
0040
01C0
02C0
0380
0740
0B40
0F00
0E00
1E00
2D00
3C00
7C00
1000
ENDCHAR
STARTCHAR cent
ENCODING 162
SWIDTH 322 0
DWIDTH 6 0
BBX 7 15 0 0
BITMAP
0010
00A0
01E0
0764
1D38
34B8
70B0
A000
D000
D000
D000
A080
7A40
1800
2400
ENDCHAR
STARTCHAR sterling
ENCODING 163
SWIDTH 318 0
DWIDTH 6 0
BBX 8 13 -1 1
BITMAP
0028
01D7
0283
031A
0718
0A00
1E00
2FD0
1C00
2800
3400
A6A0
AAA0
ENDCHAR
STARTCHAR currency
ENCODING 164
SWIDTH 347 0
DWIDTH 7 0
BBX 7 7 0 4
BITMAP
1004
2AA8
0DA0
1860
2490
7FD0
D070
ENDCHAR
STARTCHAR yen
ENCODING 165
SWIDTH 326 0
DWIDTH 7 0
BBX 8 12 0 1
BITMAP
280A
281D
1C28
0C70
0ED0
0B40
1B40
6E80
6E40
6D40
2800
2400
ENDCHAR
STARTCHAR brokenbar
ENCODING 166
SWIDTH 253 0
DWIDTH 5 0
BBX 5 16 0 -1
BITMAP
0180
0280
0340
0740
0B00
0A00
0900
0000
1400
2800
3800
7400
7000
B000
F000
4000
ENDCHAR
STARTCHAR section
ENCODING 167
SWIDTH 297 0
DWIDTH 6 0
BBX 8 16 -1 -1
BITMAP
0068
0286
070B
0709
0340
01D0
0A74
2828
2834
2DA0
0B40
01C0
64A0
A0E0
72C0
0500
ENDCHAR
STARTCHAR dieresis
ENCODING 168
SWIDTH 567 0
DWIDTH 11 0
BBX 6 2 4 11
BITMAP
B5D0
5140
ENDCHAR
STARTCHAR copyright
ENCODING 169
SWIDTH 456 0
DWIDTH 9 0
BBX 10 11 0 4
BITMAP
006500
079640
1D28D0
34E960
728860
A30060
A304A0
6354D0
359240
1E5900
019000
ENDCHAR
STARTCHAR ordfeminine
ENCODING 170
SWIDTH 373 0
DWIDTH 7 0
BBX 9 11 -1 -1
BITMAP
009000
07B000
0D2800
283400
343000
74B080
7AB240
292900
000000
BFF800
955000
ENDCHAR
STARTCHAR guillemotleft
ENCODING 171
SWIDTH 346 0
DWIDTH 7 0
BBX 8 8 -1 0
BITMAP
0145
071C
1D70
75D0
B2C0
35D0
18A0
0930
ENDCHAR
STARTCHAR logicalnot
ENCODING 172
SWIDTH 512 0
DWIDTH 10 0
BBX 10 5 0 3
BITMAP
BFFFE0
A555A0
0000D0
0001D0
000140
ENDCHAR
STARTCHAR sfthyphen
ENCODING 173
SWIDTH 353 0
DWIDTH 7 0
BBX 8 2 -1 5
BITMAP
2FFE
6554
ENDCHAR
STARTCHAR registered
ENCODING 174
SWIDTH 456 0
DWIDTH 9 0
BBX 10 11 0 4
BITMAP
006500
079640
1DA8D0
35C960
708C60
A1E460
A2A0A0
6365D0
350A40
1E5900
019000
ENDCHAR
STARTCHAR macron
ENCODING 175
SWIDTH 567 0
DWIDTH 11 0
BBX 5 2 4 11
BITMAP
7FC0
5540
ENDCHAR
STARTCHAR degree
ENCODING 176
SWIDTH 144 0
DWIDTH 3 0
BBX 3 3 1 11
BITMAP
14
9C
A4
ENDCHAR
STARTCHAR twosuperior
ENCODING 178
SWIDTH 268 0
DWIDTH 5 0
BBX 6 10 0 5
BITMAP
0290
0D70
1C70
04A0
01C0
0740
1D00
7400
BFC0
5540
ENDCHAR
STARTCHAR threesuperior
ENCODING 179
SWIDTH 262 0
DWIDTH 5 0
BBX 6 10 0 5
BITMAP
0690
1D70
2C70
04D0
0780
0AC0
00D0
61C0
7B40
1900
ENDCHAR
STARTCHAR acute
ENCODING 180
SWIDTH 567 0
DWIDTH 11 0
BBX 4 3 5 11
BITMAP
05
2D
A4
ENDCHAR
STARTCHAR mu
ENCODING 181
SWIDTH 453 0
DWIDTH 9 0
BBX 12 11 -3 -4
BITMAP
01D1C0
0282C0
034380
074741
0B0702
0F5B48
0FF6F4
1D0000
2C0000
380000
600000
ENDCHAR
STARTCHAR paragraph
ENCODING 182
SWIDTH 411 0
DWIDTH 8 0
BBX 10 16 0 -1
BITMAP
001880
06BFE0
1FFB80
3FF240
7FF300
7FE700
3FD600
0BD900
01CD00
018C00
029800
036800
072400
0A3000
0E6000
040000
ENDCHAR
STARTCHAR periodcentered
ENCODING 183
SWIDTH 168 0
DWIDTH 3 0
BBX 3 2 0 6
BITMAP
24
B8
ENDCHAR
STARTCHAR cedilla
ENCODING 184
SWIDTH 567 0
DWIDTH 11 0
BBX 4 5 5 -3
BITMAP
20
74
5E
1D
60
ENDCHAR
STARTCHAR onesuperior
ENCODING 185
SWIDTH 150 0
DWIDTH 3 0
BBX 4 10 0 5
BITMAP
05
1E
0D
0C
1C
28
24
34
70
10
ENDCHAR
STARTCHAR ordmasculine
ENCODING 186
SWIDTH 319 0
DWIDTH 6 0
BBX 9 11 -1 -1
BITMAP
014000
0BA000
1C3140
3D3A00
37B800
30A000
35D000
1F4000
000000
FFE000
550000
ENDCHAR
STARTCHAR guillemotright
ENCODING 187
SWIDTH 346 0
DWIDTH 7 0
BBX 7 8 -1 0
BITMAP
2080
2890
0D70
0A38
0B2C
1D70
75D0
D340
ENDCHAR
STARTCHAR onequarter
ENCODING 188
SWIDTH 579 0
DWIDTH 12 0
BBX 12 16 -1 -1
BITMAP
018006
03801D
034038
0340A0
0701C0
060340
090A0A
0D1C2E
1D34A9
04A28C
01C76C
0747BD
0A0038
2C0034
780074
100010
ENDCHAR
STARTCHAR onehalf
ENCODING 189
SWIDTH 603 0
DWIDTH 12 0
BBX 12 16 0 -1
BITMAP
060018
0E0074
0A00E0
0D02C0
0C0740
180D00
2828AD
34728E
34D38D
12801C
070034
0D00A0
280380
740E50
E00FF4
400400
ENDCHAR
STARTCHAR threequarters
ENCODING 190
SWIDTH 669 0
DWIDTH 13 0
BBX 13 16 0 -1
BITMAP
06900140
1D700700
2C701D00
04D02800
0780B000
0AC1D000
00D34640
61CA0F40
7B5C3B00
1934A700
00A2DA00
01D2AF00
03800D00
0B001D00
1D001C00
10000400
ENDCHAR
STARTCHAR questiondown
ENCODING 191
SWIDTH 413 0
DWIDTH 8 0
BBX 10 16 -1 -1
BITMAP
000290
0007D0
000000
000240
000B40
000B00
000E00
01BD00
0B9000
2D0000
740000
B00900
E00B00
F01E00
7EB800
065000
ENDCHAR
STARTCHAR Agrave
ENCODING 192
SWIDTH 552 0
DWIDTH 11 0
BBX 12 24 -2 -5
BITMAP
000024
00002D
000006
000000
000029
0001EB
000387
000A0A
001D0A
00380D
00741D
00B01C
00E02C
01D038
02EA78
1BFFFD
5B8078
0B40B4
1F00B0
2E00F0
3D00F0
7C00F0
5000B8
000050
ENDCHAR
STARTCHAR Aacute
ENCODING 193
SWIDTH 552 0
DWIDTH 11 0
BBX 12 24 -2 -5
BITMAP
000002
00001F
000038
000000
000029
0001EB
000387
000A0A
001D0A
00380D
00741D
00B01C
00E02C
01D038
02EA78
1BFFFD
5B8078
0B40B4
1F00B0
2E00F0
3D00F0
7C00F0
5000B8
000050
ENDCHAR
STARTCHAR Acircumflex
ENCODING 194
SWIDTH 552 0
DWIDTH 11 0
BBX 13 23 -2 -5
BITMAP
00000A00
00003B40
00005180
00002900
0001EB00
00038700
000A0A00
001D0A00
00380D00
00741D00
00B01C00
00E02C00
01D03800
02EA7800
1BFFFD00
5B807800
0B40B400
1F00B000
2E00F000
3D00F000
7C00F000
5000B800
00005000
ENDCHAR
STARTCHAR Atilde
ENCODING 195
SWIDTH 552 0
DWIDTH 11 0
BBX 14 22 -2 -5
BITMAP
0000FEA0
00004140
00002900
0001EB00
00038700
000A0A00
001D0A00
00380D00
00741D00
00B01C00
00E02C00
01D03800
02EA7800
1BFFFD00
5B807800
0B40B400
1F00B000
2E00F000
3D00F000
7C00F000
5000B800
00005000
ENDCHAR
STARTCHAR Adieresis
ENCODING 196
SWIDTH 552 0
DWIDTH 11 0
BBX 14 22 -2 -5
BITMAP
000079E0
00005040
00002900
0001EB00
00038700
000A0A00
001D0A00
00380D00
00741D00
00B01C00
00E02C00
01D03800
02EA7800
1BFFFD00
5B807800
0B40B400
1F00B000
2E00F000
3D00F000
7C00F000
5000B800
00005000
ENDCHAR
STARTCHAR Aring
ENCODING 197
SWIDTH 552 0
DWIDTH 11 0
BBX 12 22 -2 -5
BITMAP
00001A
000026
00002D
0001EB
000387
000A0A
001D0A
00380D
00741D
00B01C
00E02C
01D038
02EA78
1BFFFD
5B8078
0B40B4
1F00B0
2E00F0
3D00F0
7C00F0
5000B8
000050
ENDCHAR
STARTCHAR AE
ENCODING 198
SWIDTH 869 0
DWIDTH 17 0
BBX 20 20 -2 -5
BITMAP
00002906A4
0001EB2E5D
000387F40E
000A0BD00E
001D0BC02D
00380F8078
00741F8010
00B01FC000
00E02EE000
01D038BF00
02EA7F9500
1BFFFD0000
5B80780000
0B40B40020
1F00B40060
2E00F80090
3D00FD0680
7C00FFFE00
5000B9A400
0000500000
ENDCHAR
STARTCHAR Ccedilla
ENCODING 199
SWIDTH 548 0
DWIDTH 11 0
BBX 11 23 0 -8
BITMAP
000690
007D74
01E02C
03C03C
0B403C
0F00B8
2D00F4
3C0010
7C0000
B80000
B40000
F40000
F40000
F00000
F40080
B40280
3C0A00
1FF800
079000
074000
01E000
00A000
064000
ENDCHAR
STARTCHAR Egrave
ENCODING 200
SWIDTH 523 0
DWIDTH 10 0
BBX 12 23 -1 -4
BITMAP
000140
0002E0
000024
000000
0006A4
002E5D
00F40E
02D00E
07C01D
07807C
078010
07C000
01E000
00BF00
079500
1D0000
3C0000
780010
B80020
780090
3E0280
1FFE00
01A400
ENDCHAR
STARTCHAR Eacute
ENCODING 201
SWIDTH 523 0
DWIDTH 10 0
BBX 12 23 -1 -4
BITMAP
000004
00007C
0001D0
000000
0006A4
002E5D
00F40E
02D00E
07C01D
07807C
078010
07C000
01E000
00BF00
079500
1D0000
3C0000
780010
B80020
780090
3E0280
1FFE00
01A400
ENDCHAR
STARTCHAR Ecircumflex
ENCODING 202
SWIDTH 523 0
DWIDTH 10 0
BBX 12 23 -1 -4
BITMAP
000028
0001ED
000245
000000
0006A4
002E5D
00F40E
02D00E
07C01D
07807C
078010
07C000
01E000
00BF00
079500
1D0000
3C0000
780010
B80020
780090
3E0280
1FFE00
01A400
ENDCHAR
STARTCHAR Edieresis
ENCODING 203
SWIDTH 523 0
DWIDTH 10 0
BBX 12 21 -1 -4
BITMAP
0003CF
000105
0006A4
002E5D
00F40E
02D00E
07C01D
07807C
078010
07C000
01E000
00BF00
079500
1D0000
3C0000
780010
B80020
780090
3E0280
1FFE00
01A400
ENDCHAR
STARTCHAR Igrave
ENCODING 204
SWIDTH 537 0
DWIDTH 11 0
BBX 13 23 -2 -4
BITMAP
00002000
00007D00
00000600
00000000
00001900
0000FA00
0003CA00
000B4E00
000F0E00
000F1D00
000E1D00
000E2C00
000A3C00
00067800
0000B400
01BFFA40
1B95E000
3D01D000
78028000
78034000
3D0A0000
1FAC0000
01A00000
ENDCHAR
STARTCHAR Iacute
ENCODING 205
SWIDTH 537 0
DWIDTH 11 0
BBX 13 23 -2 -4
BITMAP
00000140
00000B40
00002900
00000000
00001900
0000FA00
0003CA00
000B4E00
000F0E00
000F1D00
000E1D00
000E2C00
000A3C00
00067800
0000B400
01BFFA40
1B95E000
3D01D000
78028000
78034000
3D0A0000
1FAC0000
01A00000
ENDCHAR
STARTCHAR Icircumflex
ENCODING 206
SWIDTH 537 0
DWIDTH 11 0
BBX 14 22 -2 -4
BITMAP
00000640
00001EC0
00006050
00001900
0000FA00
0003CA00
000B4E00
000F0E00
000F1D00
000E1D00
000E2C00
000A3C00
00067800
0000B400
01BFFA40
1B95E000
3D01D000
78028000
78034000
3D0A0000
1FAC0000
01A00000
ENDCHAR
STARTCHAR Idieresis
ENCODING 207
SWIDTH 537 0
DWIDTH 11 0
BBX 14 21 -2 -4
BITMAP
000079E0
00005040
00001900
0000FA00
0003CA00
000B4E00
000F0E00
000F1D00
000E1D00
000E2C00
000A3C00
00067800
0000B400
01BFFA40
1B95E000
3D01D000
78028000
78034000
3D0A0000
1FAC0000
01A00000
ENDCHAR
STARTCHAR Eth
ENCODING 208
SWIDTH 632 0
DWIDTH 13 0
BBX 13 19 -1 -4
BITMAP
001A4000
01FEF400
02802D00
00240B00
00F40780
00F00780
00E003C0
01E003C0
16E407C0
7FFD0780
53C00B40
03800F00
07401E00
0B003C00
0E00B400
1E01E000
2D0B8000
2EBD0000
06900000
ENDCHAR
STARTCHAR Ntilde
ENCODING 209
SWIDTH 541 0
DWIDTH 11 0
BBX 14 21 -1 -4
BITMAP
001FEA00
00041400
00500280
01E00BE0
02F01D60
02F02C90
03B039C0
07707B40
0B71B900
0A70B000
0D30B000
1D30A000
2C34E000
2C34D000
3835D000
783AC000
742A8000
B42F8000
B41F4000
B80F0000
54050000
ENDCHAR
STARTCHAR Ograve
ENCODING 210
SWIDTH 567 0
DWIDTH 11 0
BBX 11 23 0 -4
BITMAP
000500
000B80
000090
000000
002E40
00BED0
02D4B0
0780B0
0B0074
1E0074
2D0074
3C0074
7800B4
7400B0
B400F0
B400E0
B001D0
B002C0
B00780
B40B00
741D00
2DB400
0A9000
ENDCHAR
STARTCHAR Oacute
ENCODING 211
SWIDTH 567 0
DWIDTH 11 0
BBX 11 23 0 -4
BITMAP
000050
0002D0
000A40
000000
002E40
00BED0
02D4B0
0780B0
0B0074
1E0074
2D0074
3C0074
7800B4
7400B0
B400F0
B400E0
B001D0
B002C0
B00780
B40B00
741D00
2DB400
0A9000
ENDCHAR
STARTCHAR Ocircumflex
ENCODING 212
SWIDTH 567 0
DWIDTH 11 0
BBX 11 23 0 -4
BITMAP
000280
000AA0
001460
000000
002E40
00BED0
02D4B0
0780B0
0B0074
1E0074
2D0074
3C0074
7800B4
7400B0
B400F0
B400E0
B001D0
B002C0
B00780
B40B00
741D00
2DB400
0A9000
ENDCHAR
STARTCHAR Otilde
ENCODING 213
SWIDTH 567 0
DWIDTH 11 0
BBX 11 21 0 -4
BITMAP
007FA8
001050
002E40
00BED0
02D4B0
0780B0
0B0074
1E0074
2D0074
3C0074
7800B4
7400B0
B400F0
B400E0
B001D0
B002C0
B00780
B40B00
741D00
2DB400
0A9000
ENDCHAR
STARTCHAR Odieresis
ENCODING 214
SWIDTH 567 0
DWIDTH 11 0
BBX 11 21 0 -4
BITMAP
002D74
001450
002E40
00BED0
02D4B0
0780B0
0B0074
1E0074
2D0074
3C0074
7800B4
7400B0
B400F0
B400E0
B001D0
B002C0
B00780
B40B00
741D00
2DB400
0A9000
ENDCHAR
STARTCHAR multiply
ENCODING 215
SWIDTH 281 0
DWIDTH 6 0
BBX 8 8 -1 3
BITMAP
0400
0E2D
0A74
07D0
0740
0F80
35C0
6090
ENDCHAR
STARTCHAR Oslash
ENCODING 216
SWIDTH 597 0
DWIDTH 12 0
BBX 13 19 -1 -4
BITMAP
0006A780
001FBF00
00792D00
00F03D00
02D0BD00
03C0EE00
0742DE00
0B079E00
0F0B1D00
1E1D1D00
1E382D00
1D743C00
2DE07800
2FD0B400
1F80E000
1F42D000
1F078000
2FAE0000
79A40000
ENDCHAR
STARTCHAR Ugrave
ENCODING 217
SWIDTH 574 0
DWIDTH 11 0
BBX 12 22 0 -4
BITMAP
000500
000B80
000090
005005
02D01F
03C01E
07802D
0B403C
0F0078
1E00B4
2D00B0
2C00E0
3C01E0
7801D0
7402C0
B403C0
B00780
B00B80
B01F80
B43B80
7EE380
1A4140
ENDCHAR
STARTCHAR Uacute
ENCODING 218
SWIDTH 574 0
DWIDTH 11 0
BBX 12 22 0 -4
BITMAP
000014
0000B4
000290
005005
02D01F
03C01E
07802D
0B403C
0F0078
1E00B4
2D00B0
2C00E0
3C01E0
7801D0
7402C0
B403C0
B00780
B00B80
B01F80
B43B80
7EE380
1A4140
ENDCHAR
STARTCHAR Ucircumflex
ENCODING 219
SWIDTH 574 0
DWIDTH 11 0
BBX 12 22 0 -4
BITMAP
0000A0
0007B4
000914
005005
02D01F
03C01E
07802D
0B403C
0F0078
1E00B4
2D00B0
2C00E0
3C01E0
7801D0
7402C0
B403C0
B00780
B00B80
B01F80
B43B80
7EE380
1A4140
ENDCHAR
STARTCHAR Udieresis
ENCODING 220
SWIDTH 574 0
DWIDTH 11 0
BBX 12 21 0 -4
BITMAP
001E38
000410
005005
02D01F
03C01E
07802D
0B403C
0F0078
1E00B4
2D00B0
2C00E0
3C01E0
7801D0
7402C0
B403C0
B00780
B00B80
B01F80
B43B80
7EE380
1A4140
ENDCHAR
STARTCHAR Yacute
ENCODING 221
SWIDTH 532 0
DWIDTH 11 0
BBX 12 22 0 -4
BITMAP
000050
0001E0
000A40
018019
07803C
0B403C
0F0078
0E00B4
1D00B0
2C00E0
3C01D0
3802D0
7407C0
740B80
782A40
3FE340
054700
000E00
101D00
787800
BFE000
1A4000
ENDCHAR
STARTCHAR Thorn
ENCODING 222
SWIDTH 569 0
DWIDTH 11 0
BBX 12 19 -1 -4
BITMAP
001000
00B000
00E000
01E100
02FFF4
0BD03D
1F801E
0B400E
0B401E
0B001D
0E003C
1E0078
1D01E0
2C1B80
3EF800
390000
780000
B40000
500000
ENDCHAR
STARTCHAR germandbls
ENCODING 223
SWIDTH 495 0
DWIDTH 10 0
BBX 12 23 -3 -10
BITMAP
0007F4
000E1C
002C2C
003838
007470
00B0D0
00E0D0
00D0B0
01C038
16801D
0B400E
07D38A
0B76E8
0A28A0
0D1D00
1C0D00
2C1D00
282C00
343800
74B000
7BD000
7F4000
140000
ENDCHAR
STARTCHAR agrave
ENCODING 224
SWIDTH 435 0
DWIDTH 9 0
BBX 12 13 -1 -1
BITMAP
008000
01F400
001800
000000
01F800
076800
0E0D00
2C1C05
382C18
783820
79E890
3F5F40
040400
ENDCHAR
STARTCHAR aacute
ENCODING 225
SWIDTH 435 0
DWIDTH 9 0
BBX 12 13 -1 -1
BITMAP
000400
002D00
00E400
000000
01F800
076800
0E0D00
2C1C05
382C18
783820
79E890
3F5F40
040400
ENDCHAR
STARTCHAR acircumflex
ENCODING 226
SWIDTH 435 0
DWIDTH 9 0
BBX 12 13 -1 -1
BITMAP
002800
00ED00
014600
000000
01F800
076800
0E0D00
2C1C05
382C18
783820
79E890
3F5F40
040400
ENDCHAR
STARTCHAR atilde
ENCODING 227
SWIDTH 435 0
DWIDTH 9 0
BBX 12 12 -1 -1
BITMAP
07FA80
010500
000000
01F800
076800
0E0D00
2C1C05
382C18
783820
79E890
3F5F40
040400
ENDCHAR
STARTCHAR adieresis
ENCODING 228
SWIDTH 435 0
DWIDTH 9 0
BBX 12 12 -1 -1
BITMAP
01E780
014100
000000
01F800
076800
0E0D00
2C1C05
382C18
783820
79E890
3F5F40
040400
ENDCHAR
STARTCHAR aring
ENCODING 229
SWIDTH 435 0
DWIDTH 9 0
BBX 12 13 -1 -1
BITMAP
001000
009800
00A400
000000
01F800
076800
0E0D00
2C1C05
382C18
783820
79E890
3F5F40
040400
ENDCHAR
STARTCHAR ae
ENCODING 230
SWIDTH 594 0
DWIDTH 12 0
BBX 15 10 -1 -1
BITMAP
00100000
01F8BC00
076B5C00
0E1E2800
2C2DA014
382F4060
783D0180
79ED0600
3F4FB800
04014000
ENDCHAR
STARTCHAR ccedilla
ENCODING 231
SWIDTH 363 0
DWIDTH 7 0
BBX 9 14 0 -5
BITMAP
004000
0BD000
3DA000
71D000
E00080
D00240
D00900
E02400
7ED000
1D0000
290000
174000
0B0000
240000
ENDCHAR
STARTCHAR egrave
ENCODING 232
SWIDTH 372 0
DWIDTH 7 0
BBX 9 13 0 -1
BITMAP
060000
07C000
00A000
000000
07E000
1CA000
75D000
B74040
FD0240
E00A00
F02800
7ED000
050000
ENDCHAR
STARTCHAR eacute
ENCODING 233
SWIDTH 372 0
DWIDTH 7 0
BBX 9 13 0 -1
BITMAP
002000
01F000
038000
000000
07E000
1CA000
75D000
B74040
FD0240
E00A00
F02800
7ED000
050000
ENDCHAR
STARTCHAR ecircumflex
ENCODING 234
SWIDTH 372 0
DWIDTH 7 0
BBX 9 13 0 -1
BITMAP
00A000
07B400
091400
000000
07E000
1CA000
75D000
B74040
FD0240
E00A00
F02800
7ED000
050000
ENDCHAR
STARTCHAR edieresis
ENCODING 235
SWIDTH 372 0
DWIDTH 7 0
BBX 9 12 0 -1
BITMAP
0F3C00
041400
000000
07E000
1CA000
75D000
B74040
FD0240
E00A00
F02800
7ED000
050000
ENDCHAR
STARTCHAR igrave
ENCODING 236
SWIDTH 274 0
DWIDTH 5 0
BBX 7 12 0 0
BITMAP
6000
7C00
0A00
0000
1900
2C00
3800
7408
7024
A0A0
A280
7E00
ENDCHAR
STARTCHAR iacute
ENCODING 237
SWIDTH 274 0
DWIDTH 5 0
BBX 7 12 0 0
BITMAP
0050
01E0
0B40
0000
1900
2C00
3800
7408
7024
A0A0
A280
7E00
ENDCHAR
STARTCHAR icircumflex
ENCODING 238
SWIDTH 274 0
DWIDTH 5 0
BBX 7 12 0 0
BITMAP
0640
2AC0
5090
0000
1900
2C00
3800
7408
7024
A0A0
A280
7E00
ENDCHAR
STARTCHAR idieresis
ENCODING 239
SWIDTH 274 0
DWIDTH 5 0
BBX 7 11 0 0
BITMAP
79E0
5040
0000
1900
2C00
3800
7408
7024
A0A0
A280
7E00
ENDCHAR
STARTCHAR eth
ENCODING 240
SWIDTH 393 0
DWIDTH 8 0
BBX 10 14 0 -1
BITMAP
009000
006100
01BF40
0BB400
003400
0BB400
2DB410
747490
F87A40
DFF800
D1E000
D1C000
BB4000
140000
ENDCHAR
STARTCHAR ntilde
ENCODING 241
SWIDTH 461 0
DWIDTH 9 0
BBX 12 12 -1 -1
BITMAP
03FA80
010500
000000
051900
0BAF00
0F8B00
1E0E01
1C1D09
2C1D24
382CA0
742F80
100500
ENDCHAR
STARTCHAR ograve
ENCODING 242
SWIDTH 393 0
DWIDTH 8 0
BBX 10 13 0 -1
BITMAP
060000
07C000
00A000
000000
0B8000
2DA010
747090
F87640
DFF800
D1E000
D1C000
BB4000
140000
ENDCHAR
STARTCHAR oacute
ENCODING 243
SWIDTH 393 0
DWIDTH 8 0
BBX 10 13 0 -1
BITMAP
002000
01F000
038000
000000
0B8000
2DA010
747090
F87640
DFF800
D1E000
D1C000
BB4000
140000
ENDCHAR
STARTCHAR ocircumflex
ENCODING 244
SWIDTH 393 0
DWIDTH 8 0
BBX 10 13 0 -1
BITMAP
018000
0AA000
142000
000000
0B8000
2DA010
747090
F87640
DFF800
D1E000
D1C000
BB4000
140000
ENDCHAR
STARTCHAR otilde
ENCODING 245
SWIDTH 393 0
DWIDTH 8 0
BBX 10 12 0 -1
BITMAP
2FAC00
105000
000000
0B8000
2DA010
747090
F87640
DFF800
D1E000
D1C000
BB4000
140000
ENDCHAR
STARTCHAR odieresis
ENCODING 246
SWIDTH 393 0
DWIDTH 8 0
BBX 10 12 0 -1
BITMAP
1E3800
041000
000000
0B8000
2DA010
747090
F87640
DFF800
D1E000
D1C000
BB4000
140000
ENDCHAR
STARTCHAR divide
ENCODING 247
SWIDTH 350 0
DWIDTH 7 0
BBX 7 7 0 4
BITMAP
0040
03C0
0000
BFF8
A554
0500
0E00
ENDCHAR
STARTCHAR oslash
ENCODING 248
SWIDTH 406 0
DWIDTH 8 0
BBX 11 11 -1 -2
BITMAP
000200
02EE00
0B6C04
1E0D18
2F0E90
2AFE00
347800
287400
2EE000
B50000
500000
ENDCHAR
STARTCHAR ugrave
ENCODING 249
SWIDTH 468 0
DWIDTH 9 0
BBX 11 13 0 -1
BITMAP
020000
07D000
006000
000000
140800
382C00
743C00
B07808
E07424
E07060
E1F180
7F7E00
040400
ENDCHAR
STARTCHAR uacute
ENCODING 250
SWIDTH 468 0
DWIDTH 9 0
BBX 11 13 0 -1
BITMAP
001400
00B400
029000
000000
140800
382C00
743C00
B07808
E07424
E07060
E1F180
7F7E00
040400
ENDCHAR
STARTCHAR ucircumflex
ENCODING 251
SWIDTH 468 0
DWIDTH 9 0
BBX 11 13 0 -1
BITMAP
006000
02A800
050800
000000
140800
382C00
743C00
B07808
E07424
E07060
E1F180
7F7E00
040400
ENDCHAR
STARTCHAR udieresis
ENCODING 252
SWIDTH 468 0
DWIDTH 9 0
BBX 11 12 0 -1
BITMAP
075E00
050400
000000
140800
382C00
743C00
B07808
E07424
E07060
E1F180
7F7E00
040400
ENDCHAR
STARTCHAR yacute
ENCODING 253
SWIDTH 406 0
DWIDTH 8 0
BBX 9 21 -1 -9
BITMAP
000100
001F00
007400
000000
090600
1E0B40
1D0B00
2C0E00
382D00
747C00
74F800
3FB800
053400
007000
00B000
00E000
00D000
01D000
02C000
03C000
014000
ENDCHAR
STARTCHAR thorn
ENCODING 254
SWIDTH 451 0
DWIDTH 9 0
BBX 13 23 -2 -9
BITMAP
00640000
00780000
00740000
00B00000
00E00000
00D00000
01D64000
02EBC000
03E1C000
0381C040
07038200
0B074900
0BEE6400
0FFFD000
1D910000
2C000000
28000000
38000000
74000000
B0000000
F0000000
E0000000
50000000
ENDCHAR
STARTCHAR ydieresis
ENCODING 255
SWIDTH 406 0
DWIDTH 8 0
BBX 9 20 -1 -9
BITMAP
03CF00
010500
000000
090600
1E0B40
1D0B00
2C0E00
382D00
747C00
74F800
3FB800
053400
007000
00B000
00E000
00D000
01D000
02C000
03C000
014000
ENDCHAR
STARTCHAR dotlessi
ENCODING 305
SWIDTH 274 0
DWIDTH 5 0
BBX 7 8 0 0
BITMAP
1900
2C00
3800
7408
7024
A0A0
A280
7E00
ENDCHAR
STARTCHAR Lslash
ENCODING 321
SWIDTH 492 0
DWIDTH 10 0
BBX 13 19 -2 -4
BITMAP
00001A00
00007F80
0000F380
0001D740
0002CA00
0003ED00
0007F400
07FF8000
005B0000
000F0000
006FE000
02FE4000
012C0000
00380000
00B00000
6FE00000
F7F40400
BE2FBC00
1006F400
ENDCHAR
STARTCHAR lslash
ENCODING 322
SWIDTH 218 0
DWIDTH 4 0
BBX 8 15 -2 -1
BITMAP
0064
00B4
00B4
00F0
00E0
01E5
1BFD
7FC0
1380
0740
0B00
0B00
0E00
1D00
0400
ENDCHAR
STARTCHAR OE
ENCODING 338
SWIDTH 918 0
DWIDTH 18 0
BBX 19 19 0 -4
BITMAP
002E401A90
00BED0B974
02D4B3D038
0780BF4038
0B007F00B4
1E007E01E0
2D007E0040
3C007F0000
7800BB8000
7400B7FC00
B400FE5400
B400F40000
B001E00000
B002D00080
B007D00180
B40BE00340
741DF41A00
2DB47FF800
0A90069000
ENDCHAR
STARTCHAR oe
ENCODING 339
SWIDTH 583 0
DWIDTH 12 0
BBX 14 9 0 -1
BITMAP
0B82F000
2DAD7000
7478A000
FC768050
DBFE0080
D1F40600
D2F41C00
BF7EE000
14050000
ENDCHAR
STARTCHAR Scaron
ENCODING 352
SWIDTH 474 0
DWIDTH 10 0
BBX 12 23 -1 -4
BITMAP
000246
0001ED
0000A0
000000
001A90
00B974
02D038
078038
0B4038
0740B4
07C000
02E000
00F800
007D00
001E00
000F00
000B00
140700
B40700
F40E00
B81C00
7EB400
1A9000
ENDCHAR
STARTCHAR scaron
ENCODING 353
SWIDTH 351 0
DWIDTH 7 0
BBX 7 14 0 -1
BITMAP
0914
07A0
0280
0000
0640
0F40
1F00
2B40
6380
82C0
10D0
74D0
7E80
1900
ENDCHAR
STARTCHAR Ydieresis
ENCODING 376
SWIDTH 532 0
DWIDTH 11 0
BBX 12 21 0 -4
BITMAP
002D74
001450
018019
07803C
0B403C
0F0078
0E00B4
1D00B0
2C00E0
3C01D0
3802D0
7407C0
740B80
782A40
3FE340
054700
000E00
101D00
787800
BFE000
1A4000
ENDCHAR
STARTCHAR Zcaron
ENCODING 381
SWIDTH 455 0
DWIDTH 9 0
BBX 13 22 -2 -4
BITMAP
00014240
0000ED00
00006400
00569500
01FFFF00
01940F00
00001E00
00003C00
0000B400
0001E000
0007C000
000F4000
002D0000
00B40000
01E00000
03800000
0B000000
1D000000
38000000
7ABF9000
7FFFC000
14010000
ENDCHAR
STARTCHAR zcaron
ENCODING 382
SWIDTH 349 0
DWIDTH 7 0
BBX 12 21 -3 -9
BITMAP
002460
001ED0
000A00
000000
01BF80
03A780
000700
000E00
002C05
00B918
01EB60
018780
006E00
02DA00
0A1D00
2C2C00
347400
70B000
B1D000
7F8000
190000
ENDCHAR
STARTCHAR circumflex
ENCODING 710
SWIDTH 567 0
DWIDTH 11 0
BBX 6 3 4 11
BITMAP
0640
2AC0
5090
ENDCHAR
STARTCHAR caron
ENCODING 711
SWIDTH 567 0
DWIDTH 11 0
BBX 6 3 4 11
BITMAP
5090
3B40
1900
ENDCHAR
STARTCHAR breve
ENCODING 728
SWIDTH 567 0
DWIDTH 11 0
BBX 6 4 4 10
BITMAP
4040
A1D0
7F40
0400
ENDCHAR
STARTCHAR dotaccent
ENCODING 729
SWIDTH 567 0
DWIDTH 11 0
BBX 2 2 6 11
BITMAP
F0
40
ENDCHAR
STARTCHAR ring
ENCODING 730
SWIDTH 567 0
DWIDTH 11 0
BBX 3 3 5 11
BITMAP
14
68
68
ENDCHAR
STARTCHAR ogonek
ENCODING 731
SWIDTH 567 0
DWIDTH 11 0
BBX 5 4 4 -3
BITMAP
2400
7040
7F40
0400
ENDCHAR
STARTCHAR tilde
ENCODING 732
SWIDTH 567 0
DWIDTH 11 0
BBX 6 2 4 11
BITMAP
FEA0
4140
ENDCHAR
STARTCHAR hungarumlaut
ENCODING 733
SWIDTH 567 0
DWIDTH 11 0
BBX 7 3 3 11
BITMAP
0108
1F7C
75E0
ENDCHAR
STARTCHAR endash
ENCODING 8211
SWIDTH 353 0
DWIDTH 7 0
BBX 8 2 -1 5
BITMAP
2FFE
6554
ENDCHAR
STARTCHAR emdash
ENCODING 8212
SWIDTH 508 0
DWIDTH 10 0
BBX 10 2 0 5
BITMAP
FFFFE0
A55590
ENDCHAR
STARTCHAR quoteleft
ENCODING 8216
SWIDTH 155 0
DWIDTH 3 0
BBX 3 5 1 9
BITMAP
10
60
E0
F4
A0
ENDCHAR
STARTCHAR quoteright
ENCODING 8217
SWIDTH 154 0
DWIDTH 3 0
BBX 3 5 1 9
BITMAP
10
B8
74
30
50
ENDCHAR
STARTCHAR quotesinglbase
ENCODING 8218
SWIDTH 188 0
DWIDTH 4 0
BBX 3 5 -1 -3
BITMAP
74
B8
34
60
40
ENDCHAR
STARTCHAR quotedblleft
ENCODING 8220
SWIDTH 289 0
DWIDTH 6 0
BBX 5 5 1 9
BITMAP
1040
6240
E740
FBC0
A640
ENDCHAR
STARTCHAR quotedblright
ENCODING 8221
SWIDTH 288 0
DWIDTH 6 0
BBX 6 5 1 9
BITMAP
2580
BBD0
76C0
3180
4200
ENDCHAR
STARTCHAR quotedblbase
ENCODING 8222
SWIDTH 323 0
DWIDTH 6 0
BBX 6 5 -1 -3
BITMAP
76D0
BBD0
35C0
6240
4100
ENDCHAR
STARTCHAR bullet
ENCODING 8226
SWIDTH 180 0
DWIDTH 4 0
BBX 3 5 0 3
BITMAP
68
FC
FC
F8
50
ENDCHAR
STARTCHAR ellipsis
ENCODING 8230
SWIDTH 614 0
DWIDTH 12 0
BBX 11 3 -1 -1
BITMAP
141414
7C7C7C
101010
ENDCHAR
STARTCHAR perthousand
ENCODING 8240
SWIDTH 851 0
DWIDTH 17 0
BBX 16 16 0 -1
BITMAP
01400500
0E902C00
28707400
3470D000
70A28000
30D70000
3B9D0000
05280000
00B19018
01D774AB
038D29C3
0B1C2A83
1D183747
3818734E
B00FD1F8
40010050
ENDCHAR
STARTCHAR guilsinglleft
ENCODING 8249
SWIDTH 202 0
DWIDTH 4 0
BBX 5 8 -1 0
BITMAP
0140
0700
1D00
7400
B000
3400
2800
0D00
ENDCHAR
STARTCHAR guilsinglright
ENCODING 8250
SWIDTH 202 0
DWIDTH 4 0
BBX 4 8 -1 0
BITMAP
20
28
0D
0A
0B
1D
74
D0
ENDCHAR
STARTCHAR fraction
ENCODING 8260
SWIDTH 600 0
DWIDTH 12 0
BBX 11 16 1 -1
BITMAP
000018
000074
0000A0
0002C0
000740
000E00
002800
007000
00D000
028000
070000
0D0000
2C0000
740000
E00000
400000
ENDCHAR
STARTCHAR Euro
ENCODING 8364
SWIDTH 334 0
DWIDTH 7 0
BBX 9 12 -1 1
BITMAP
006E00
01D280
028000
074000
1F9400
6E5400
6EA000
6D4000
280000
180800
096400
028000
ENDCHAR
STARTCHAR minus
ENCODING 8722
SWIDTH 353 0
DWIDTH 7 0
BBX 8 2 -1 5
BITMAP
2FFE
6554
ENDCHAR
STARTCHAR fi
ENCODING 64257
SWIDTH 549 0
DWIDTH 11 0
BBX 15 24 -2 -10
BITMAP
00680000
007C0600
00780E00
00740400
00740000
00B00000
00E01800
01D07800
02D6F400
07E4B014
0F40E020
0F00D0D0
0B80D740
0DA0BD00
1C340000
2C280000
282C0000
34280000
74340000
70B00000
A1D00000
FB800000
BE000000
14000000
ENDCHAR
STARTCHAR fl
ENCODING 64258
SWIDTH 516 0
DWIDTH 10 0
BBX 13 24 -2 -10
BITMAP
00680640
007C0B40
00780B00
00740F00
00741E00
00B01D00
00E02C00
01D03C00
02D6B800
07E47400
0F40B000
0F00E000
0B80E000
0DA1D000
1C344000
2C280000
282C0000
34280000
74340000
70B00000
A1D00000
FB800000
BE000000
14000000
ENDCHAR
STARTCHAR .notdef
ENCODING -1
SWIDTH 280 0
DWIDTH 6 0
BBX 1 1 0 0
BITMAP
00
ENDCHAR
ENDFONT
